<?xml version="1.0" encoding="UTF-8"?>
<svg width="120" height="40" viewBox="0 0 120 40" fill="none" xmlns="http://www.w3.org/2000/svg">
  <path d="M10 8C10 6.89543 10.8954 6 12 6H28C29.1046 6 30 6.89543 30 8V32C30 33.1046 29.1046 34 28 34H12C10.8954 34 10 33.1046 10 32V8Z" fill="#0284C7"/>
  <path d="M35 20C35 18.8954 35.8954 18 37 18H53C54.1046 18 55 18.8954 55 20V32C55 33.1046 54.1046 34 53 34H37C35.8954 34 35 33.1046 35 32V20Z" fill="#0EA5E9"/>
  <text x="65" y="28" font-family="Inter, sans-serif" font-size="24" font-weight="bold" fill="#1F2937">AI</text>
</svg>